<svg xmlns="http://www.w3.org/2000/svg" xmlns:xlink="http://www.w3.org/1999/xlink" width="600" zoomAndPan="magnify" viewBox="0 0 450 135.000003" height="180" preserveAspectRatio="xMidYMid meet" version="1.0"><defs><g/><clipPath id="6f90567785"><path d="M 1.65625 4 L 209 4 L 209 80 L 1.65625 80 Z M 1.65625 4 " clip-rule="nonzero"/></clipPath><clipPath id="05dbd5ae11"><path d="M 0.0703125 0.847656 L 169 0.847656 L 169 37.773438 L 0.0703125 37.773438 Z M 0.0703125 0.847656 " clip-rule="nonzero"/></clipPath><clipPath id="7b741b4d6b"><rect x="0" width="170" y="0" height="38"/></clipPath></defs><g clip-path="url(#6f90567785)"><path fill="#ffffff" d="M 6.40625 4.632812 L 198.265625 4.632812 C 200.851562 4.632812 203.332031 5.660156 205.160156 7.488281 C 206.988281 9.320312 208.015625 11.800781 208.015625 14.386719 L 208.015625 69.90625 C 208.015625 72.492188 206.988281 74.972656 205.160156 76.800781 C 203.332031 78.628906 200.851562 79.65625 198.265625 79.65625 L 6.40625 79.65625 C 3.820312 79.65625 1.339844 78.628906 -0.488281 76.800781 C -2.320312 74.972656 -3.347656 72.492188 -3.347656 69.90625 L -3.347656 14.386719 C -3.347656 11.800781 -2.320312 9.320312 -0.488281 7.488281 C 1.339844 5.660156 3.820312 4.632812 6.40625 4.632812 Z M 6.40625 4.632812 " fill-opacity="1" fill-rule="nonzero"/></g><g fill="#000000" fill-opacity="1"><g transform="translate(10.144638, 55.546116)"><g><path d="M 4.609375 -3.09375 C 2.273438 -5.65625 1.109375 -8.78125 1.109375 -12.46875 C 1.109375 -16.15625 2.273438 -19.269531 4.609375 -21.8125 C 6.941406 -24.351562 9.898438 -25.625 13.484375 -25.625 C 16.785156 -25.625 19.503906 -24.441406 21.640625 -22.078125 L 21.734375 -22.078125 L 21.734375 -24.890625 L 30.234375 -24.890625 L 30.234375 12.625 L 21.640625 12.625 L 21.640625 -2.375 C 19.503906 -0.300781 16.785156 0.734375 13.484375 0.734375 C 9.898438 0.734375 6.941406 -0.539062 4.609375 -3.09375 Z M 11.828125 -16.671875 C 10.765625 -15.585938 10.234375 -14.1875 10.234375 -12.46875 C 10.234375 -10.757812 10.789062 -9.351562 11.90625 -8.25 C 13.03125 -7.144531 14.414062 -6.59375 16.0625 -6.59375 C 17.675781 -6.59375 19.039062 -7.144531 20.15625 -8.25 C 21.28125 -9.351562 21.84375 -10.757812 21.84375 -12.46875 C 21.84375 -14.15625 21.300781 -15.546875 20.21875 -16.640625 C 19.132812 -17.742188 17.75 -18.296875 16.0625 -18.296875 C 14.3125 -18.296875 12.898438 -17.753906 11.828125 -16.671875 Z M 11.828125 -16.671875 "/></g></g></g><g fill="#000000" fill-opacity="1"><g transform="translate(42.312909, 55.546116)"><g><path d="M 24.21875 -8.25 C 25.601562 -8.25 26.953125 -8.457031 28.265625 -8.875 C 29.578125 -9.300781 30.539062 -9.707031 31.15625 -10.09375 L 32.078125 -10.71875 L 35.96875 -2.953125 C 35.832031 -2.859375 35.648438 -2.726562 35.421875 -2.5625 C 35.203125 -2.40625 34.675781 -2.109375 33.84375 -1.671875 C 33.019531 -1.234375 32.140625 -0.851562 31.203125 -0.53125 C 30.265625 -0.207031 29.035156 0.0820312 27.515625 0.34375 C 25.992188 0.601562 24.425781 0.734375 22.8125 0.734375 C 19.09375 0.734375 15.566406 -0.175781 12.234375 -2 C 8.898438 -3.832031 6.210938 -6.347656 4.171875 -9.546875 C 2.128906 -12.753906 1.109375 -16.222656 1.109375 -19.953125 C 1.109375 -22.765625 1.707031 -25.460938 2.90625 -28.046875 C 4.101562 -30.640625 5.695312 -32.859375 7.6875 -34.703125 C 9.675781 -36.546875 12 -38.015625 14.65625 -39.109375 C 17.3125 -40.210938 20.03125 -40.765625 22.8125 -40.765625 C 25.394531 -40.765625 27.78125 -40.457031 29.96875 -39.84375 C 32.15625 -39.226562 33.703125 -38.613281 34.609375 -38 L 35.96875 -37.078125 L 32.078125 -29.3125 C 31.847656 -29.507812 31.503906 -29.742188 31.046875 -30.015625 C 30.597656 -30.285156 29.691406 -30.644531 28.328125 -31.09375 C 26.972656 -31.550781 25.601562 -31.78125 24.21875 -31.78125 C 22.019531 -31.78125 20.046875 -31.425781 18.296875 -30.71875 C 16.546875 -30.007812 15.160156 -29.070312 14.140625 -27.90625 C 13.128906 -26.738281 12.351562 -25.484375 11.8125 -24.140625 C 11.28125 -22.796875 11.015625 -21.429688 11.015625 -20.046875 C 11.015625 -17.003906 12.15625 -14.273438 14.4375 -11.859375 C 16.71875 -9.453125 19.976562 -8.25 24.21875 -8.25 Z M 24.21875 -8.25 "/></g></g></g><g fill="#000000" fill-opacity="1"><g transform="translate(77.877542, 55.546116)"><g><path d="M 2.90625 0 L 2.90625 -24.890625 L 11.5 -24.890625 L 11.5 -21.3125 L 11.59375 -21.3125 C 11.664062 -21.4375 11.773438 -21.59375 11.921875 -21.78125 C 12.066406 -21.976562 12.378906 -22.316406 12.859375 -22.796875 C 13.347656 -23.285156 13.863281 -23.722656 14.40625 -24.109375 C 14.957031 -24.503906 15.671875 -24.851562 16.546875 -25.15625 C 17.421875 -25.46875 18.3125 -25.625 19.21875 -25.625 C 20.15625 -25.625 21.078125 -25.492188 21.984375 -25.234375 C 22.890625 -24.972656 23.550781 -24.710938 23.96875 -24.453125 L 24.65625 -24.078125 L 21.0625 -16.796875 C 20 -17.703125 18.507812 -18.15625 16.59375 -18.15625 C 15.5625 -18.15625 14.671875 -17.925781 13.921875 -17.46875 C 13.179688 -17.019531 12.65625 -16.46875 12.34375 -15.8125 C 12.039062 -15.164062 11.820312 -14.613281 11.6875 -14.15625 C 11.5625 -13.707031 11.5 -13.359375 11.5 -13.109375 L 11.5 0 Z M 2.90625 0 "/></g></g></g><g fill="#000000" fill-opacity="1"><g transform="translate(101.069685, 55.546116)"><g><path d="M 4.609375 -3.078125 C 2.273438 -5.617188 1.109375 -8.734375 1.109375 -12.421875 C 1.109375 -16.109375 2.273438 -19.226562 4.609375 -21.78125 C 6.941406 -24.34375 9.898438 -25.625 13.484375 -25.625 C 16.785156 -25.625 19.503906 -24.585938 21.640625 -22.515625 L 21.640625 -24.890625 L 30.234375 -24.890625 L 30.234375 0 L 21.734375 0 L 21.734375 -2.8125 L 21.640625 -2.8125 C 19.503906 -0.445312 16.785156 0.734375 13.484375 0.734375 C 9.898438 0.734375 6.941406 -0.535156 4.609375 -3.078125 Z M 11.90625 -16.640625 C 10.789062 -15.546875 10.234375 -14.140625 10.234375 -12.421875 C 10.234375 -10.710938 10.765625 -9.3125 11.828125 -8.21875 C 12.898438 -7.132812 14.3125 -6.59375 16.0625 -6.59375 C 17.75 -6.59375 19.132812 -7.144531 20.21875 -8.25 C 21.300781 -9.351562 21.84375 -10.742188 21.84375 -12.421875 C 21.84375 -14.140625 21.28125 -15.546875 20.15625 -16.640625 C 19.039062 -17.742188 17.675781 -18.296875 16.0625 -18.296875 C 14.414062 -18.296875 13.03125 -17.742188 11.90625 -16.640625 Z M 11.90625 -16.640625 "/></g></g></g><g fill="#000000" fill-opacity="1"><g transform="translate(133.237956, 55.546116)"><g><path d="M 18.203125 0 L 12.375 0 L -0.96875 -24.890625 L 8.9375 -24.890625 L 15 -11.453125 L 20.96875 -24.890625 L 26.890625 -24.890625 L 32.859375 -11.453125 L 38.921875 -24.890625 L 48.828125 -24.890625 L 35.46875 0 L 29.65625 0 L 23.921875 -12.859375 Z M 18.203125 0 "/></g></g></g><g fill="#000000" fill-opacity="1"><g transform="translate(180.107653, 55.546116)"><g><path d="M 2.90625 0 L 2.90625 -41.734375 L 11.5 -41.734375 L 11.5 0 Z M 2.90625 0 "/></g></g></g><g transform="matrix(1, 0, 0, 1, 59, 63)"><g clip-path="url(#7b741b4d6b)"><g clip-path="url(#05dbd5ae11)"><path fill="#dffd6e" d="M 9.675781 0.957031 L 159.535156 0.957031 C 162.015625 0.957031 164.398438 1.941406 166.152344 3.695312 C 167.90625 5.453125 168.894531 7.832031 168.894531 10.316406 L 168.894531 28.296875 C 168.894531 30.78125 167.90625 33.160156 166.152344 34.914062 C 164.398438 36.671875 162.015625 37.65625 159.535156 37.65625 L 9.675781 37.65625 C 4.507812 37.65625 0.316406 33.464844 0.316406 28.296875 L 0.316406 10.316406 C 0.316406 5.144531 4.507812 0.957031 9.675781 0.957031 Z M 9.675781 0.957031 " fill-opacity="1" fill-rule="nonzero"/></g><g fill="#000000" fill-opacity="1"><g transform="translate(15.496006, 25.524177)"><g><path d="M 9.371094 0 L 12.101562 0 L 7.625 -12.738281 L 4.511719 -12.738281 L 0.0546875 0 L 2.765625 0 L 3.53125 -2.292969 L 8.609375 -2.292969 Z M 4.332031 -4.640625 L 6.078125 -9.84375 L 7.824219 -4.640625 Z M 4.332031 -4.640625 "/></g></g></g><g fill="#000000" fill-opacity="1"><g transform="translate(28.89024, 25.524177)"><g><path d="M 5.53125 0.253906 C 8.242188 0.253906 10.15625 -1.199219 10.15625 -3.585938 C 10.15625 -6.1875 8.007812 -6.859375 5.988281 -7.496094 C 4.058594 -8.082031 3.566406 -8.5 3.566406 -9.28125 C 3.566406 -10.007812 4.1875 -10.554688 5.242188 -10.554688 C 6.535156 -10.554688 7.226562 -9.882812 7.679688 -8.917969 L 9.789062 -10.136719 C 8.9375 -11.921875 7.335938 -12.992188 5.242188 -12.992188 C 3.058594 -12.992188 1.054688 -11.609375 1.054688 -9.207031 C 1.054688 -6.789062 2.949219 -5.96875 4.894531 -5.40625 C 6.789062 -4.859375 7.644531 -4.496094 7.644531 -3.546875 C 7.644531 -2.839844 7.117188 -2.203125 5.605469 -2.203125 C 4.023438 -2.203125 3.128906 -2.964844 2.675781 -4.148438 L 0.527344 -2.894531 C 1.21875 -1 2.929688 0.253906 5.53125 0.253906 Z M 5.53125 0.253906 "/></g></g></g><g fill="#000000" fill-opacity="1"><g transform="translate(40.737585, 25.524177)"><g><path d="M 11.265625 -12.738281 L 8.425781 -12.738281 L 5.660156 -7.425781 L 2.894531 -12.738281 L 0.0546875 -12.738281 L 4.402344 -4.96875 L 4.402344 0 L 6.898438 0 L 6.898438 -4.96875 Z M 11.265625 -12.738281 "/></g></g></g><g fill="#000000" fill-opacity="1"><g transform="translate(53.276482, 25.524177)"><g><path d="M 8.554688 -12.738281 L 8.554688 -4.96875 L 3.09375 -12.738281 L 1.183594 -12.738281 L 1.183594 0 L 3.695312 0 L 3.695312 -7.789062 L 9.152344 0 L 11.066406 0 L 11.066406 -12.738281 Z M 8.554688 -12.738281 "/></g></g></g><g fill="#000000" fill-opacity="1"><g transform="translate(66.76171, 25.524177)"><g><path d="M 7.226562 0.253906 C 9.574219 0.253906 11.628906 -0.929688 12.703125 -2.746094 L 10.535156 -4.003906 C 9.9375 -2.894531 8.679688 -2.203125 7.226562 -2.203125 C 4.730469 -2.203125 3.09375 -3.929688 3.09375 -6.371094 C 3.09375 -8.828125 4.730469 -10.554688 7.226562 -10.554688 C 8.679688 -10.554688 9.917969 -9.863281 10.535156 -8.734375 L 12.703125 -9.992188 C 11.609375 -11.8125 9.554688 -12.992188 7.226562 -12.992188 C 3.367188 -12.992188 0.601562 -10.101562 0.601562 -6.371094 C 0.601562 -2.65625 3.367188 0.253906 7.226562 0.253906 Z M 7.226562 0.253906 "/></g></g></g><g fill="#000000" fill-opacity="1"><g transform="translate(81.211467, 25.524177)"><g/></g></g><g fill="#000000" fill-opacity="1"><g transform="translate(86.998648, 25.524177)"><g><path d="M 8.554688 -12.738281 L 8.554688 -4.96875 L 3.09375 -12.738281 L 1.183594 -12.738281 L 1.183594 0 L 3.695312 0 L 3.695312 -7.789062 L 9.152344 0 L 11.066406 0 L 11.066406 -12.738281 Z M 8.554688 -12.738281 "/></g></g></g><g fill="#000000" fill-opacity="1"><g transform="translate(100.483876, 25.524177)"><g><path d="M 9.371094 0 L 12.101562 0 L 7.625 -12.738281 L 4.511719 -12.738281 L 0.0546875 0 L 2.765625 0 L 3.53125 -2.292969 L 8.609375 -2.292969 Z M 4.332031 -4.640625 L 6.078125 -9.84375 L 7.824219 -4.640625 Z M 4.332031 -4.640625 "/></g></g></g><g fill="#000000" fill-opacity="1"><g transform="translate(113.878109, 25.524177)"><g><path d="M 9.609375 -12.738281 L 0.238281 -12.738281 L 0.238281 -10.335938 L 3.65625 -10.335938 L 3.65625 0 L 6.167969 0 L 6.167969 -10.335938 L 9.609375 -10.335938 Z M 9.609375 -12.738281 "/></g></g></g><g fill="#000000" fill-opacity="1"><g transform="translate(124.94291, 25.524177)"><g><path d="M 1.183594 -12.738281 L 1.183594 0 L 3.695312 0 L 3.695312 -12.738281 Z M 1.183594 -12.738281 "/></g></g></g><g fill="#000000" fill-opacity="1"><g transform="translate(131.057668, 25.524177)"><g><path d="M 4.332031 0 L 7.441406 0 L 11.738281 -12.738281 L 8.988281 -12.738281 L 5.894531 -2.949219 L 2.785156 -12.738281 L 0.0546875 -12.738281 Z M 4.332031 0 "/></g></g></g><g fill="#000000" fill-opacity="1"><g transform="translate(144.069735, 25.524177)"><g><path d="M 3.695312 -2.402344 L 3.695312 -5.257812 L 8.515625 -5.257812 L 8.515625 -7.625 L 3.695312 -7.625 L 3.695312 -10.335938 L 8.972656 -10.335938 L 8.972656 -12.738281 L 1.183594 -12.738281 L 1.183594 0 L 9.0625 0 L 9.0625 -2.402344 Z M 3.695312 -2.402344 "/></g></g></g></g></g></svg>